<?xml version="1.0" encoding="UTF-8" standalone="no"?>
<!-- Created with Inkscape (http://www.inkscape.org/) -->

<svg
   width="135.38966mm"
   height="135.54897mm"
   viewBox="0 0 135.38966 135.54897"
   version="1.1"
   id="svg1"
   xml:space="preserve"
   xmlns:inkscape="http://www.inkscape.org/namespaces/inkscape"
   xmlns:sodipodi="http://sodipodi.sourceforge.net/DTD/sodipodi-0.dtd"
   xmlns="http://www.w3.org/2000/svg"
   xmlns:svg="http://www.w3.org/2000/svg"><sodipodi:namedview
     id="namedview1"
     pagecolor="#ffffff"
     bordercolor="#000000"
     borderopacity="0.25"
     inkscape:showpageshadow="2"
     inkscape:pageopacity="0.0"
     inkscape:pagecheckerboard="0"
     inkscape:deskcolor="#d1d1d1"
     inkscape:document-units="mm" /><defs
     id="defs1" /><g
     inkscape:label="Ebene 1"
     inkscape:groupmode="layer"
     id="layer1"
     transform="translate(-235.38459,-95.578847)"><g
       id="g1"
       transform="translate(197.90327,15.496489)"
       inkscape:export-filename="logo.svg"
       inkscape:export-xdpi="96"
       inkscape:export-ydpi="96"><path
         style="fill:#e1ddf2"
         d="m 117.25346,202.37493 v -13.22917 h -6.08542 -6.08541 v -3.97889 -3.97889 l 8.79739,0.0763 c 8.61588,0.0747 8.81447,0.0885 9.62467,0.66639 1.73109,1.23479 1.68627,0.75536 1.68627,18.03686 v 15.63658 h -3.96875 -3.96875 z m -74.232267,7.34219 -0.777105,-0.8599 0.859896,0.77711 c 0.801543,0.72437 0.981512,0.94268 0.777105,0.94268 -0.04554,0 -0.432488,-0.38695 -0.859896,-0.85989 z M 54.24888,187.88899 c -0.329107,-0.41964 -0.319749,-0.429 0.0999,-0.0999 0.254661,0.19972 0.463021,0.40808 0.463021,0.46302 0,0.21776 -0.217272,0.0776 -0.562916,-0.36313 z m 50.83375,-26.52448 v -3.96874 h 6.08541 6.08542 v -17.4625 -17.4625 h 3.96875 3.96875 v 17.4625 17.4625 h 23.8125 23.8125 v 3.96874 3.96875 h -33.86667 -33.86666 z m -13.493753,-2.48114 c 0,-0.0549 0.208359,-0.2633 0.463021,-0.46302 0.419644,-0.32911 0.429002,-0.31975 0.0999,0.0999 -0.345644,0.44073 -0.562916,0.58089 -0.562916,0.36313 z m -16.542665,-11.34333 -2.110459,-2.18282 2.182812,2.11046 c 2.02733,1.96013 2.303434,2.25517 2.11046,2.25517 -0.03979,0 -1.02206,-0.98227 -2.182813,-2.18281 z m -21.028166,-2.415 c 0,-0.0549 0.208359,-0.2633 0.463021,-0.46302 0.419643,-0.32911 0.429002,-0.31975 0.09989,0.0999 -0.345643,0.44073 -0.562915,0.58089 -0.562915,0.36313 z M 42.37638,129.00256 c 0,-0.0455 0.386953,-0.43249 0.859895,-0.8599 l 0.859896,-0.7771 -0.777105,0.85989 c -0.724371,0.80155 -0.942686,0.98152 -0.942686,0.77711 z m 37.521222,-9.35837 c 0.190996,-0.0764 0.419199,-0.067 0.507118,0.0209 0.08792,0.0879 -0.06835,0.15045 -0.347266,0.13897 -0.308224,-0.0127 -0.370919,-0.0754 -0.159852,-0.15986 z m 1.107942,-11.72551 V 96.012435 h 0.738162 c 1.321043,0 3.860259,0.797047 5.303838,1.664849 7.868192,4.729926 7.74569,15.960786 -0.225036,20.631036 -1.265402,0.74143 -3.861324,1.51661 -5.078802,1.51661 h -0.738162 z m -7.971248,8.7974 c -0.329108,-0.41964 -0.319749,-0.429 0.0999,-0.0999 0.440729,0.34565 0.580887,0.56292 0.363126,0.56292 -0.05494,0 -0.263302,-0.20836 -0.463021,-0.46302 z m -1.058334,-1.05833 c -0.329107,-0.41965 -0.319749,-0.42901 0.0999,-0.0999 0.254662,0.19972 0.463021,0.40808 0.463021,0.46302 0,0.21776 -0.217272,0.0776 -0.562916,-0.36312 z m -2.834891,-6.68073 c 0,-0.3638 0.06005,-0.51263 0.133452,-0.33073 0.0734,0.1819 0.0734,0.47956 0,0.66146 -0.0734,0.1819 -0.133452,0.0331 -0.133452,-0.33073 z m 0,-2.11667 c 0,-0.3638 0.06005,-0.51263 0.133452,-0.33073 0.0734,0.1819 0.0734,0.47956 0,0.66146 -0.0734,0.1819 -0.133452,0.0331 -0.133452,-0.33073 z m 2.604057,-6.44989 c 0,-0.055 0.208359,-0.2633 0.463021,-0.463024 0.419644,-0.329108 0.429002,-0.319749 0.09989,0.09989 -0.345644,0.44073 -0.562916,0.58089 -0.562916,0.36313 z m 1.058333,-1.058337 c 0,-0.05494 0.20836,-0.263301 0.463021,-0.46302 0.419644,-0.329108 0.429002,-0.319749 0.0999,0.09989 -0.345644,0.44073 -0.562916,0.580888 -0.562916,0.363126 z m 6.813021,-3.250333 c 0.181901,-0.0734 0.479557,-0.0734 0.661458,0 0.181901,0.0734 0.03307,0.133452 -0.330729,0.133452 -0.363802,0 -0.51263,-0.06005 -0.330729,-0.133452 z m 20.934478,-7.960709 c -0.32911,-0.419644 -0.31975,-0.429002 0.0999,-0.0999 0.44072,0.345644 0.58088,0.562916 0.36312,0.562916 -0.0549,0 -0.2633,-0.208359 -0.46302,-0.463021 z"
         id="path7" /><path
         style="fill:#8bbbfe"
         d="m 74.390961,202.37493 v -13.22917 h 15.345833 15.345836 v 13.22917 13.22917 H 89.736794 74.390961 Z"
         id="path6" /><path
         style="fill:#cfea8a"
         d="m 53.855881,215.31598 c -3.657475,-0.61172 -7.372523,-2.53228 -10.326948,-5.33869 -2.401213,-2.28092 -4.020875,-4.82749 -5.171789,-8.13153 l -0.875556,-2.51354 v -30.03021 c 0,-32.30478 -0.05372,-30.95703 1.374007,-34.47069 1.502971,-3.69883 4.835186,-7.54057 8.303711,-9.57342 2.105153,-1.23379 5.676557,-2.42928 7.917073,-2.65015 l 1.719792,-0.16954 1.455208,2.85413 c 2.523129,4.94866 7.325557,11.77106 11.609778,16.49301 l 1.800421,1.98437 -7.626393,-0.0739 c -7.237519,-0.0702 -7.680419,-0.0464 -8.685914,0.46658 -0.687229,0.3506 -1.246709,0.90745 -1.592248,1.58476 -0.519723,1.01874 -0.532727,1.5227 -0.532727,20.64448 0,19.12177 0.013,19.62574 0.532727,20.64448 0.342889,0.67211 0.904843,1.23407 1.57696,1.57696 0.986019,0.50303 1.546305,0.53272 10.050605,0.53272 h 9.006373 v 13.22917 13.22917 l -9.591145,-0.0309 c -5.27513,-0.017 -10.199901,-0.13274 -10.943935,-0.25718 z m 101.183379,0.10737 c 0.191,-0.0764 0.4192,-0.067 0.50712,0.0209 0.0879,0.0879 -0.0684,0.15046 -0.34726,0.13897 -0.30823,-0.0127 -0.37092,-0.0754 -0.15986,-0.15986 z m 11.82357,-5.64009 c 0.56839,-0.58208 1.09297,-1.05833 1.16573,-1.05833 0.0728,0 -0.33276,0.47625 -0.90115,1.05833 -0.56838,0.58209 -1.09296,1.05834 -1.16572,1.05834 -0.0728,0 0.33275,-0.47625 0.90114,-1.05834 z m 5.70943,-11.796 c 0.0127,-0.30823 0.0754,-0.37092 0.15985,-0.15986 0.0764,0.191 0.067,0.4192 -0.0209,0.50712 -0.0879,0.0879 -0.15046,-0.0684 -0.13897,-0.34726 z M 61.161795,166.3916 v -14.81667 l 9.458854,-0.0256 c 5.20237,-0.0141 9.895077,-0.006 10.428239,0.0186 1.457319,0.0665 2.246486,-0.47601 5.704837,-3.92165 7.045006,-7.01911 12.617315,-14.2188 16.715725,-21.5975 l 1.61318,-2.90433 v 17.12568 17.12569 h -5.566794 c -5.057053,0 -5.662408,0.0488 -6.611022,0.53272 -0.672117,0.34289 -1.234071,0.90485 -1.576959,1.57696 -0.506986,0.99378 -0.532728,1.54336 -0.532728,11.37352 v 10.32929 H 75.978461 61.161795 Z m 37.570832,6.87916 v -7.9375 h 3.175003 3.175 v 7.9375 7.9375 h -3.175 -3.175003 z m 73.839633,-33.22725 c 0.0127,-0.30823 0.0754,-0.37092 0.15985,-0.15985 0.0764,0.19099 0.067,0.4192 -0.0209,0.50711 -0.0879,0.0879 -0.15046,-0.0684 -0.13897,-0.34726 z m -5.72188,-11.81806 -1.04588,-1.12447 1.12448,1.04588 c 1.04575,0.97266 1.24606,1.20307 1.04588,1.20307 -0.0432,0 -0.54924,-0.50601 -1.12448,-1.12448 z m -11.81112,-5.67084 c 0.191,-0.0764 0.4192,-0.067 0.50712,0.0209 0.0879,0.0879 -0.0684,0.15045 -0.34726,0.13896 -0.30823,-0.0127 -0.37092,-0.0754 -0.15986,-0.15985 z M 53.245184,105.38309 c 0.0127,-0.30822 0.07539,-0.37091 0.159852,-0.15985 0.07643,0.191 0.06703,0.4192 -0.02089,0.50712 -0.08792,0.0879 -0.150453,-0.0684 -0.138964,-0.34727 z M 78.310102,80.221279 c 0.190996,-0.07643 0.419199,-0.06703 0.507118,0.02089 0.08792,0.08792 -0.06835,0.150453 -0.347266,0.138964 -0.308224,-0.0127 -0.370919,-0.07539 -0.159852,-0.159852 z"
         id="path5" /><path
         style="fill:#7b83e6"
         d="m 105.08263,202.37493 v -13.22917 h 6.08541 6.08542 v 13.22917 13.22917 h -6.08542 -6.08541 z m 35.39093,-16.42068 c -0.60458,-0.3192 -1.19618,-0.92788 -1.52135,-1.56527 -0.50221,-0.98441 -0.53209,-1.54866 -0.53209,-10.04934 v -9.00638 h 17.19792 17.19792 v 10.58334 10.58333 l -15.67657,-0.0117 c -15.08519,-0.0113 -15.71388,-0.0314 -16.66583,-0.53399 z"
         id="path4" /><path
         style="fill:#8de069"
         d="m 125.18997,199.80888 c -9.6e-4,-15.3217 -0.0176,-15.84978 -0.52675,-16.68481 -0.28917,-0.47427 -0.9138,-1.0989 -1.38807,-1.38807 -0.81401,-0.49631 -1.34769,-0.52581 -9.52742,-0.52675 l -8.6651,-9.9e-4 v -7.9375 -7.9375 h 16.66875 16.66874 v 9.00638 c 0,8.5043 0.0297,9.06458 0.53273,10.0506 0.34289,0.67212 0.90484,1.23407 1.57696,1.57696 1.01172,0.51614 1.53151,0.53273 16.69271,0.53273 h 15.64847 l -0.12231,6.28385 c -0.13977,7.1803 -0.30048,8.04434 -2.22684,11.9724 -1.03951,2.11966 -1.60935,2.89022 -3.63647,4.91733 -2.02711,2.02712 -2.79767,2.59696 -4.91733,3.63647 -4.51293,2.21319 -3.69864,2.12765 -21.23281,2.23035 l -15.54427,0.091 z m -20.10734,-59.87561 v -17.4625 h 6.08541 6.08542 v 17.4625 17.4625 h -6.08542 -6.08541 z m 20.10833,-0.0136 v -17.47614 l 15.54427,0.091 c 17.53417,0.1027 16.71988,0.0172 21.23281,2.23036 2.11966,1.0395 2.89022,1.60935 4.91733,3.63646 2.02712,2.02711 2.59696,2.79767 3.63647,4.91733 2.07082,4.22263 2.10771,4.46896 2.22896,14.88281 l 0.10704,9.19428 H 149.0244 125.19096 Z"
         id="path3" /><path
         style="fill:#fd7a47"
         d="m 79.228142,151.02213 c -1.29321,-0.64013 -7.553469,-6.97436 -11.091493,-11.22255 -8.543066,-10.25786 -13.516498,-20.00509 -14.648293,-28.70859 -1.17632,-9.0459 2.78723,-18.765032 10.065446,-24.681765 4.111263,-3.342199 9.908894,-5.672629 15.26893,-6.137537 l 2.182812,-0.189328 v 7.906477 7.906478 l -1.850687,0.291412 c -5.721535,0.900919 -10.055562,5.957483 -10.055562,11.731953 0,5.77448 4.334027,10.83104 10.055562,11.73196 l 1.850687,0.29141 v 15.81644 c 0,12.47688 -0.06983,15.8164 -0.330729,15.81623 -0.181901,-1.1e-4 -0.832904,-0.24878 -1.446673,-0.55259 z m 7.587178,-3.48209 c 1.096424,-1.16819 1.333974,-1.37824 1.333974,-1.17957 0,0.0425 -0.565547,0.60801 -1.256771,1.25677 l -1.256771,1.17957 z m 3.979807,-4.29948 c 0.341774,-0.3638 0.680939,-0.66146 0.7537,-0.66146 0.07276,0 -0.147342,0.29766 -0.489117,0.66146 -0.341774,0.3638 -0.680939,0.66146 -0.753699,0.66146 -0.07276,0 0.147342,-0.29766 0.489116,-0.66146 z m 1.5875,-1.81969 c 0,-0.0549 0.208359,-0.2633 0.463021,-0.46302 0.419644,-0.32911 0.429002,-0.31975 0.0999,0.0999 -0.345644,0.44072 -0.562916,0.58088 -0.562916,0.36312 z m -3.042708,-25.03552 c 0.263389,-0.29104 0.53842,-0.52917 0.611181,-0.52917 0.07276,0 -0.08321,0.23813 -0.346598,0.52917 -0.263389,0.29104 -0.53842,0.52917 -0.611181,0.52917 -0.07276,0 0.08321,-0.23813 0.346598,-0.52917 z m 19.203181,-5.97517 c 0.0127,-0.30823 0.0754,-0.37092 0.15985,-0.15986 0.0764,0.191 0.067,0.4192 -0.0209,0.50712 -0.0879,0.0879 -0.15045,-0.0684 -0.13896,-0.34726 z m 0.0209,-5.13733 c 0,-0.3638 0.06,-0.51263 0.13345,-0.33073 0.0734,0.1819 0.0734,0.47956 0,0.66146 -0.0734,0.1819 -0.13345,0.0331 -0.13345,-0.33073 z m -19.24921,-5.886978 -0.504028,-0.595312 0.595313,0.504028 c 0.559446,0.473662 0.715761,0.686597 0.504028,0.686597 -0.05021,0 -0.318098,-0.267891 -0.595313,-0.595313 z m 12.5591,-9.657291 c -0.32911,-0.419644 -0.31975,-0.429002 0.0999,-0.0999 0.44073,0.345644 0.58089,0.562916 0.36313,0.562916 -0.0549,0 -0.2633,-0.208359 -0.46302,-0.463021 z m -2.910419,-2.910416 c -0.329107,-0.419644 -0.319749,-0.429003 0.0999,-0.09989 0.440729,0.345644 0.580887,0.562916 0.363126,0.562916 -0.05494,0 -0.263302,-0.20836 -0.463021,-0.463021 z M 83.320648,80.226791 c 0.181901,-0.0734 0.479558,-0.0734 0.661459,0 0.181901,0.0734 0.03307,0.133452 -0.33073,0.133452 -0.363802,0 -0.51263,-0.06005 -0.330729,-0.133452 z"
         id="path2" /><path
         style="fill:#fd1e3c"
         d="m 81.005544,135.73668 v -15.83825 l 1.625034,-0.14735 c 2.155668,-0.19547 5.105421,-1.65472 6.829033,-3.37833 0.770796,-0.77079 1.714878,-2.13639 2.311439,-3.34345 0.993045,-2.00929 1.008452,-2.08737 1.008452,-5.11062 0,-3.02324 -0.01541,-3.10132 -1.008452,-5.11061 -1.848538,-3.740265 -5.457917,-6.387855 -9.166852,-6.724169 L 81.005544,95.93894 v -7.92829 -7.92829 l 2.182813,0.189328 c 5.360036,0.464908 11.157666,2.795338 15.268929,6.137537 5.864604,4.767557 9.650874,12.070388 10.210454,19.693605 0.75196,10.24409 -5.31003,23.02939 -17.357506,36.60856 -5.089298,5.73634 -8.628609,8.86354 -10.031608,8.86354 -0.184679,0 -0.273082,-5.12722 -0.273082,-15.83825 z"
         id="path1" /></g></g></svg>
